<?xml version="1.0" encoding="UTF-8"?>
<svg id="Layer_2" data-name="Layer 2" xmlns="http://www.w3.org/2000/svg" viewBox="0 0 125.68 117.31">
  <g id="Layer_1-2" data-name="Layer 1">
    <path d="m25.14,92.16c-4.2,0-8.21,0-12.22,0C5.42,92.15,0,86.72,0,79.19,0,57.11,0,35.03,0,12.96,0,5.43,5.42,0,12.94,0,46.23,0,79.52,0,112.81,0c7.43,0,12.87,5.44,12.87,12.88,0,22.12,0,44.24,0,66.36,0,7.51-5.43,12.91-12.98,12.91-16.36,0-32.72,0-49.08-.01-.92,0-1.63.21-2.37.8-9.41,7.57-18.85,15.12-28.3,22.64-.87.69-1.87,1.39-2.92,1.63-2.55.58-4.87-1.44-4.88-4.1-.02-6.46,0-12.91,0-19.37,0-.47,0-.94,0-1.58Z"/>
  </g>
</svg>