<?xml version="1.0" encoding="UTF-8"?>
<svg id="Layer_2" data-name="Layer 2" xmlns="http://www.w3.org/2000/svg" viewBox="0 0 131.68 123.31">
  <g id="Layer_1-2" data-name="Layer 1">
    <path d="m66.04,9c16.59,0,33.17,0,49.76,0,4.11,0,6.87,2.77,6.87,6.88,0,22.12,0,44.24,0,66.36,0,4.2-2.74,6.91-6.98,6.91-6.22,0-12.44,0-18.66,0-10.14,0-20.27,0-30.43-.02-2.34,0-4.34.7-6.12,2.13-9.04,7.27-17.89,14.35-26.35,21.08,0-3.35,0-6.7,0-10.05v-5.57s0-.96,0-.96v-6.62h-9.9s-3.75,0-3.75,0c-1.53,0-3.04,0-4.55,0-4.21,0-6.93-2.74-6.93-6.97,0-22.08,0-44.15,0-66.23,0-4.22,2.72-6.96,6.93-6.96,16.7,0,33.4,0,50.1,0m0-6c-16.7,0-33.41,0-50.11,0-7.51,0-12.93,5.43-12.93,12.95,0,22.08,0,44.15,0,66.23,0,7.53,5.41,12.96,12.92,12.97,1.52,0,3.03,0,4.56,0,2.51,0,5.05,0,7.65,0,0,.63,0,1.1,0,1.58,0,6.46-.02,12.91,0,19.37,0,2.35,1.82,4.2,4,4.2.29,0,.58-.03.88-.1,1.04-.24,2.05-.94,2.92-1.63,9.46-7.52,18.89-15.06,28.3-22.64.73-.59,1.45-.8,2.36-.8h0c10.14.01,20.28.02,30.42.02,6.22,0,12.44,0,18.66,0,7.54,0,12.97-5.4,12.98-12.91,0-22.12,0-44.24,0-66.36,0-7.44-5.44-12.88-12.87-12.88-16.59,0-33.18,0-49.77,0h0Z"/>
  </g>
</svg>