<?xml version="1.0" encoding="UTF-8"?>
<svg id="Layer_2" data-name="Layer 2" xmlns="http://www.w3.org/2000/svg" viewBox="0 0 125.68 143.8">
  <g id="Layer_1-2" data-name="Layer 1">
    <path d="m83.8,6c-.02,18.48-.02,37.23-.02,55.38v14.46s0,1.97,0,1.97v6h13.25s5.5,0,5.5,0c4.33,0,8.66,0,12.99,0-17.53,17.58-35.06,35.17-52.6,52.75L10.19,83.81h.23s2.51,0,2.51,0h8.77s6.19,0,6.19,0h6.19s1.75,0,1.75,0h6v-22.24c0-18.21,0-37.02-.02-55.57h41.99m3.76-6h-49.71c-1.65.95-2.04,2.41-2.04,4.24.04,23.91.03,47.81.03,71.72,0,.59,0,1.18,0,1.85h-1.75c-4.13,0-8.26,0-12.39,0-2.89,0-5.78,0-8.67,0h-.1c-1.67,0-3.34,0-5.01,0-1.53,0-3.05,0-4.58,0-1.37,0-2.46.53-3.06,1.83-.61,1.32-.19,2.45.73,3.46.25.28.52.54.79.8,19.35,19.36,38.7,38.72,58.06,58.07,1.21,1.22,2.15,1.82,3.08,1.82s1.85-.6,3.04-1.8c19.33-19.38,38.65-38.76,57.98-58.15.4-.4.8-.79,1.12-1.25,1.27-1.81.44-4.09-1.7-4.65-.52-.13-1.08-.14-1.62-.14-.05,0-.09,0-.14,0-.02,0-.03,0-.05,0-6.35,0-12.69,0-19.04,0-3.67,0-7.33,0-11,0h-1.75v-1.97c0-23.91,0-47.81.02-71.72,0-1.85-.49-3.29-2.24-4.12h0Z"/>
  </g>
</svg>