<?xml version="1.0" encoding="UTF-8"?>
<svg id="Layer_2" data-name="Layer 2" xmlns="http://www.w3.org/2000/svg" viewBox="0 0 125.68 143.8">
  <g id="Layer_1-2" data-name="Layer 1">
    <path d="m87.56,0c1.75.83,2.24,2.27,2.24,4.12-.03,23.91-.02,47.81-.02,71.72v1.97c.66,0,1.2,0,1.75,0,10.01,0,20.03,0,30.04,0,.6,0,1.23-.01,1.81.14,2.14.55,2.96,2.84,1.7,4.65-.32.46-.73.85-1.12,1.25-19.32,19.39-38.65,38.77-57.98,58.15-2.4,2.41-3.7,2.4-6.12-.02C40.51,122.62,21.15,103.26,1.8,83.91c-.26-.26-.54-.52-.79-.8-.91-1.01-1.34-2.14-.73-3.46.6-1.3,1.68-1.83,3.06-1.83,3.23,0,6.46,0,9.69,0,7.02,0,14.04,0,21.06,0h1.75c0-.67,0-1.26,0-1.85,0-23.91.01-47.81-.03-71.72,0-1.83.39-3.29,2.04-4.24h49.71Z"/>
  </g>
</svg>