<?xml version="1.0" encoding="UTF-8"?>
<svg id="Layer_2" data-name="Layer 2" xmlns="http://www.w3.org/2000/svg" viewBox="0 0 125.68 125.68">
  <g id="Layer_1-2" data-name="Layer 1">
    <g>
      <path d="m113.38,0H12.31C5.51,0,0,5.51,0,12.31v101.07c0,6.8,5.51,12.3,12.31,12.3h97.85l4.25-.05c6.31-.52,11.27-5.8,11.27-12.25V12.31c0-6.8-5.51-12.31-12.3-12.31Zm6.3,113.38c0,3.48-2.83,6.3-6.3,6.3H12.31c-3.48,0-6.31-2.82-6.31-6.3V12.31c0-3.48,2.83-6.31,6.31-6.31h101.07c3.47,0,6.3,2.83,6.3,6.31v101.07Z"/>
      <path d="m112.6,119.68h-8.6L33.85,51.41c-.51-.49-1.18-.74-1.88-.71-.7.04-1.34.36-1.79.91l-24.18,29.2v-9.4l19.56-23.63c1.51-1.83,3.73-2.94,6.09-3.07,2.35-.13,4.69.75,6.38,2.4l74.57,72.57Z"/>
      <path d="m85.79,50.11c-9.17,0-16.63-7.46-16.63-16.63s7.46-16.63,16.63-16.63,16.63,7.46,16.63,16.63-7.46,16.63-16.63,16.63Zm0-27.26c-5.86,0-10.63,4.77-10.63,10.63s4.77,10.63,10.63,10.63,10.63-4.77,10.63-10.63-4.77-10.63-10.63-10.63Z"/>
    </g>
  </g>
</svg>