<?xml version="1.0" encoding="UTF-8"?>
<svg id="Layer_2" data-name="Layer 2" xmlns="http://www.w3.org/2000/svg" viewBox="0 0 125.68 118.75">
  <g id="Layer_1-2" data-name="Layer 1">
    <g>
      <path d="m75.47,59.57c0,16.04-.02,32.08.02,48.12.01,4.43-1.65,7.85-5.69,9.81-4.04,1.96-7.96,1.62-11.62-1.09-10.52-7.79-21.06-15.56-31.56-23.37-1-.74-1.98-1.07-3.22-1.07-3.63,0-7.26-.03-10.89-.22-7.21-.39-12.4-5.82-12.46-13.03-.06-6.77-.01-13.54-.01-20.31,0-5.79-.11-11.58.04-17.36.18-7.09,5.82-12.49,12.92-12.58,3.63-.04,7.26-.01,10.89-.1.72-.02,1.56-.28,2.13-.71,10.94-8.29,21.85-16.62,32.76-24.96,2.46-1.88,5.15-3.07,8.31-2.6,4.37.65,7.43,3.74,8.1,8.13.18,1.21.27,2.44.28,3.66.02,15.89.01,31.78.01,47.68Z"/>
      <path d="m97.95,59.76c-2.79-2.76-5.53-5.42-8.2-8.15-1.93-1.98-2.33-4.66-1.2-7.06,1.1-2.34,3.63-3.88,6.17-3.71,1.71.11,3.05.97,4.22,2.15,2.6,2.6,5.19,5.2,7.88,7.9,2.75-2.76,5.4-5.49,8.14-8.13,3.42-3.31,8.69-2.14,10.29,2.29.94,2.6.3,4.92-1.63,6.87-2.55,2.58-5.11,5.14-7.67,7.72-.03.03-.04.09-.1.22,2.53,2.54,5.07,5.11,7.64,7.65,1.39,1.38,2.23,2.98,2.16,4.96-.1,2.65-1.36,4.61-3.79,5.63-2.54,1.07-4.93.62-6.92-1.31-2.71-2.63-5.33-5.34-8.11-8.13-2.64,2.65-5.24,5.24-7.81,7.84-1.42,1.43-3.09,2.25-5.13,2.1-2.63-.2-4.51-1.55-5.49-4.01-.98-2.48-.47-4.75,1.36-6.64,2.65-2.74,5.4-5.4,8.19-8.19Z"/>
    </g>
  </g>
</svg>