<?xml version="1.0" encoding="UTF-8"?>
<svg id="Layer_2" data-name="Layer 2" xmlns="http://www.w3.org/2000/svg" viewBox="0 0 125.68 159.94">
  <g id="Layer_1-2" data-name="Layer 1">
    <g>
      <path d="m51.41,80.15c0,20.64,0,41.28,0,61.93,0,10.52-7.31,17.84-17.8,17.85-5.53,0-11.07.03-16.6,0C7.59,159.87.02,152.31.01,142.88c-.02-41.94-.02-83.88,0-125.82C.02,7.63,7.59.07,17.01.02c5.83-.03,11.66-.03,17.49,0,9.31.06,16.88,7.62,16.9,16.95.03,21.06.01,42.12.01,63.18Z"/>
      <path d="m125.67,80.06c0,20.64,0,41.28,0,61.93,0,10.65-7.27,17.93-17.89,17.94-5.47,0-10.95.02-16.42,0-9.53-.05-17.07-7.59-17.08-17.14-.02-41.88-.02-83.76,0-125.64,0-9.55,7.55-17.08,17.09-17.13,5.77-.03,11.54-.03,17.31,0,9.42.05,16.97,7.6,16.98,17.04.03,21,0,42,0,63Z"/>
    </g>
  </g>
</svg>