<?xml version="1.0" encoding="UTF-8"?>
<svg id="Layer_2" data-name="Layer 2" xmlns="http://www.w3.org/2000/svg" viewBox="0 0 125.68 142.93">
  <g id="Layer_1-2" data-name="Layer 1">
    <path d="m8.42,0c14.77,8.48,29.55,16.93,44.31,25.43,22.9,13.19,45.77,26.42,68.66,39.63,3.58,2.07,5,5.08,3.96,8.42-.63,2.04-2.09,3.32-3.89,4.35-10.47,6.02-20.92,12.07-31.38,18.11-26.26,15.17-52.53,30.32-78.78,45.51-2.15,1.24-4.31,1.97-6.76,1.1-2.75-.97-4.48-3.5-4.48-6.58,0-12.1,0-24.19,0-36.29,0-30.38.05-60.76-.05-91.14C-.01,4.35,1.33,1.45,5.35,0c1.02,0,2.05,0,3.07,0Z"/>
  </g>
</svg>