<?xml version="1.0" encoding="UTF-8"?>
<svg id="Layer_2" data-name="Layer 2" xmlns="http://www.w3.org/2000/svg" viewBox="0 0 125.68 118.37">
  <g id="Layer_1-2" data-name="Layer 1">
    <path d="m123.22,118.37c-1.67,0-2.43-.02-2.43-2.81-.01-14.2,0-20.54-.02-33.87-.01-19.98-14.48-34.5-34.4-34.52-8.05,0-16.1-.01-24.14-.01H9.87s9.34,10.94,9.34,10.94c.31.37.58.69.82.98.56.67,1.08,1.31,1.73,1.97l4.05,4.07c6.11,6.14,12.44,12.49,18.72,18.69.82.81,1.18,1.55.74,3.1-.21.75-.51,1.08-.58,1.13-1.27-.03-2.38-.37-2.75-.57C28.39,74.03,14.99,60.29,1.32,46.21c-1.78-1.83-1.76-2.88.05-4.7C14.92,27.95,28.47,14.39,42.05.86c.55-.55,1.25-.86,1.92-.86.27,0,.52.05.73.16.94.46,1.5,1.42,1.36,1.97-.19.8-.84,1.88-1.56,2.63-5.22,5.39-10.64,10.79-15.89,16.02-2.16,2.15-4.32,4.3-6.47,6.46-.57.57-1.11,1.17-1.8,1.94-.31.34-.65.73-1.06,1.17l-10.12,11.1h54.71c7.71-.01,15.42,0,23.13.01,17.8.05,32.37,11.06,37.1,28.06.95,3.4,1.46,7.29,1.48,11.25.04,7.52.07,11.41.08,13.64q.02,2.99.01,4.88c0,1.85-.02,5.48-.02,15.3,0,3.64-.78,3.69-1.86,3.75-.18.01-.36.02-.53.02h-.03Z"/>
  </g>
</svg>