<?xml version="1.0" encoding="UTF-8"?>
<svg id="Layer_2" data-name="Layer 2" xmlns="http://www.w3.org/2000/svg" viewBox="0 0 125.68 125.74">
  <g id="Layer_1-2" data-name="Layer 1">
    <g>
      <path d="m63.55,125.74c-18.66,0-37.31,0-55.96-.02-4.09,0-7.56-3.46-7.57-7.55C-.01,99.71,0,81.25.01,62.79c0-1.77,1.44-3.16,3.27-3.16,1.86,0,3.25,1.37,3.26,3.19.01,12.27.01,24.55.01,36.82v19.53s112.58,0,112.58,0v-18.51c0-12.62,0-25.23,0-37.85,0-1.53,1.06-2.8,2.63-3.16.2-.05.42-.07.63-.07,1.23,0,2.42.74,2.9,1.81.21.46.34,1,.34,1.4.04,19.47.05,37.58.02,55.39,0,4.09-3.47,7.54-7.57,7.54-18.18.01-36.36.02-54.54.02Z"/>
      <path d="m35.84,32.36c.18.06.36.12.53.16-.57-.07-1.18-.32-1.68-.77.31.25.69.45,1.15.61Z"/>
      <path d="m61.96,98.13c.29.08.59.13.89.13-.03.01-.06.01-.1.01-.87,0-1.64-.32-2.16-.88.37.34.82.58,1.36.74Z"/>
      <path d="m88.87,32.55c.13,0,.26-.01.4-.03-.23.05-.45.07-.67.07-.44,0-1.13-.1-2.01-.86.86.67,1.69.81,2.27.81Z"/>
      <path d="m91.87,30.31c.03-.08.05-.17.08-.25-.16.73-.47,1.26-.95,1.67.37-.36.67-.81.87-1.42Z"/>
      <path d="m92.06,28.9c-.03-.29-.12-.58-.25-.9.16.33.23.62.25.9Z"/>
      <path d="m92.07,29.18c0,.12-.01.22-.02.33-.02.16-.04.32-.08.47,0,.03-.01.06-.01.08-.03.08-.05.17-.08.25-.2.6-.5,1.06-.87,1.42-.01,0-.02.01-.03.02-.31.25-.69.45-1.15.61-.18.06-.36.12-.53.16h-.02c-.14.02-.27.03-.4.03-.58,0-1.42-.15-2.27-.81h-.01c-.13-.12-.24-.22-.37-.34-2.9-2.83-5.81-5.77-8.65-8.61-1.35-1.37-2.72-2.74-4.09-4.1-.26-.26-.53-.52-.88-.82l-2.07-1.91-4.43-4.07v23.29c0,19.46.01,39.58-.04,59.37-.01.77-.26,1.71-.66,2.4-.1.17-.21.32-.34.45-.36.33-.81.57-1.34.73-.29.08-.58.13-.88.13s-.6-.04-.89-.13c-.54-.16-.99-.4-1.36-.74-.13-.13-.23-.29-.33-.44-.39-.69-.64-1.63-.64-2.4-.05-19.79-.05-39.91-.05-59.37V11.88l-4.43,4.07-2.07,1.91c-.34.31-.61.56-.88.82-1.37,1.36-2.73,2.73-4.09,4.1-2.82,2.83-5.74,5.77-8.65,8.61-.13.12-.24.22-.37.33,0,.01-.01.01-.01.01-.86.67-1.69.81-2.27.81-.13,0-.26-.01-.4-.03h-.02c-.17-.04-.35-.1-.53-.16-.47-.16-.85-.36-1.15-.61-.01,0-.01-.01-.02-.02-.37-.35-.68-.81-.88-1.42-.03-.08-.05-.17-.08-.25-.01-.03-.01-.05-.01-.08-.04-.15-.06-.31-.08-.47-.01-.11-.02-.2-.02-.32,0-.08,0-.19.01-.29.03-.29.12-.58.25-.9.05-.11.11-.21.18-.32.05-.08.11-.18.17-.27.04-.06.08-.13.14-.19.2-.26.44-.54.75-.85,5.39-5.38,10.78-10.77,16.18-16.15L59.8,1.69s.02-.02.04-.03c.18-.18.38-.36.59-.55.02-.01.03-.03.04-.03.12-.1.23-.19.36-.27.13-.1.25-.18.38-.25.13-.08.24-.15.37-.21.16-.08.33-.16.5-.21.11-.03.22-.06.33-.08h.02c.14-.03.26-.04.4-.04h.01c.14,0,.26.01.4.04.29.05.57.16.85.3.25.13.51.29.74.47.13.08.24.18.36.27.01.01.03.02.04.03.23.19.44.39.64.58l8.53,8.53c5.38,5.38,10.77,10.77,16.18,16.15.22.22.42.43.57.63.1.12.19.22.26.34.08.12.16.23.22.34.01.03.03.05.05.08.04.07.07.16.12.23.14.32.22.61.25.9.01.08.01.18.01.27Z"/>
      <path d="m33.85,28.01c-.14.32-.22.61-.25.9.02-.27.1-.57.25-.9Z"/>
      <path d="m33.79,30.31c.2.6.51,1.07.88,1.42-.5-.4-.8-.94-.96-1.67.03.08.05.17.08.25Z"/>
      <path d="m36.79,32.55c.58,0,1.42-.15,2.27-.81-.88.76-1.56.86-2.01.86-.21,0-.43-.02-.67-.07.14.02.27.03.4.03Z"/>
      <path d="m63.72,98.13c.53-.16.98-.4,1.34-.73-.51.56-1.27.87-2.14.87-.03,0-.05,0-.08-.01.3,0,.59-.04.88-.13Z"/>
      <path d="m90.98,31.75c-.5.45-1.11.7-1.68.77.17-.04.35-.1.53-.16.47-.16.85-.36,1.15-.61Z"/>
    </g>
  </g>
</svg>