<?xml version="1.0" encoding="UTF-8"?>
<svg id="Layer_2" data-name="Layer 2" xmlns="http://www.w3.org/2000/svg" viewBox="0 0 125.66 119.35">
  <g id="Layer_1-2" data-name="Layer 1">
    <g>
      <path d="m75.47,59.57c0,16.04-.02,32.08.02,48.12.01,4.43-1.65,7.85-5.69,9.81-4.04,1.96-7.96,1.62-11.62-1.09-10.52-7.79-21.06-15.56-31.56-23.37-1-.74-1.98-1.07-3.22-1.07-3.63,0-7.26-.03-10.89-.22-7.21-.39-12.4-5.82-12.46-13.03-.06-6.77-.01-13.54-.01-20.31,0-5.79-.11-11.58.04-17.36.18-7.09,5.82-12.49,12.92-12.58,3.63-.04,7.26-.01,10.89-.1.72-.02,1.56-.28,2.13-.71,10.94-8.29,21.85-16.62,32.76-24.96,2.46-1.88,5.15-3.07,8.31-2.6,4.37.65,7.43,3.74,8.1,8.13.18,1.21.27,2.44.28,3.66.02,15.89.01,31.78.01,47.68Z"/>
      <path d="m99.67,119.35c-1.36-.04-2.72-.59-3.74-1.64-2.1-2.16-2.05-5.61.1-7.71.16-.16,17.77-17.91,18.7-49.86.92-31.68-18.35-49.95-18.55-50.13-2.2-2.04-2.34-5.49-.31-7.69,2.04-2.21,5.47-2.36,7.68-.33.94.87,23.14,21.62,22.07,58.47-1.06,36.56-21.14,56.52-21.99,57.35-1.1,1.07-2.54,1.58-3.96,1.54Z"/>
      <g>
        <path d="m85.65,106.7c-1.37-.04-2.64-.6-3.6-1.58-2.01-2.07-1.97-5.39.1-7.4.13-.13,13.53-13.75,14.23-38.07.7-24.06-13.95-38.07-14.1-38.2-2.11-1.96-2.24-5.28-.29-7.39,1.03-1.12,2.49-1.73,4-1.69,1.25.04,2.45.52,3.38,1.37.75.69,18.32,17.13,17.48,46.22-.84,28.83-16.72,44.61-17.4,45.27-1.02,1-2.38,1.52-3.81,1.48Z"/>
        <path d="m85.68,105.7c-1.06-.03-2.11-.46-2.91-1.28-1.63-1.68-1.6-4.36.08-5.99.13-.13,13.81-13.92,14.54-38.76.72-24.63-14.26-38.83-14.42-38.97-1.71-1.59-1.82-4.27-.24-5.98,1.58-1.72,4.25-1.83,5.97-.26.73.67,17.99,16.81,17.15,45.45-.83,28.42-16.43,43.94-17.09,44.58-.86.83-1.97,1.23-3.08,1.2Z"/>
      </g>
    </g>
  </g>
</svg>