<?xml version="1.0" encoding="UTF-8"?>
<svg id="Layer_2" data-name="Layer 2" xmlns="http://www.w3.org/2000/svg" viewBox="0 0 125.68 143.8">
  <g id="Layer_1-2" data-name="Layer 1">
    <path d="m62.75,7.24l52.74,52.75h-.24s-2.5,0-2.5,0h-9.12s-6.02,0-6.02,0h-13.77v22.26c0,18.21,0,37.01.02,55.55h-41.99c.02-18.48.02-37.23.02-55.38v-14.46s0-1.97,0-1.97v-6h-13.33s-5.36,0-5.36,0c-4.35,0-8.7,0-13.05,0C27.68,42.4,45.22,24.82,62.75,7.24m0-7.24c-.92,0-1.85.6-3.04,1.8C40.37,21.18,21.04,40.56,1.72,59.95c-.4.4-.8.79-1.12,1.25-1.27,1.81-.44,4.09,1.7,4.65.52.13,1.08.14,1.62.14.05,0,.09,0,.14,0,.02,0,.03,0,.05,0,6.37,0,12.74,0,19.1,0,3.57,0,7.14,0,10.71,0h1.97v1.97c0,23.91,0,47.81-.02,71.72,0,1.85.49,3.29,2.24,4.12h49.71c1.65-.95,2.04-2.41,2.04-4.24-.04-23.91-.03-47.81-.03-71.72v-1.85h1.75c4.01,0,8.02,0,12.03,0,3.01,0,6.02,0,9.02,0h.1c1.67,0,3.33,0,5,0,1.53,0,3.06,0,4.58,0,1.37,0,2.46-.53,3.06-1.83.61-1.32.19-2.45-.73-3.46-.25-.28-.52-.54-.79-.8C104.52,40.54,85.17,21.18,65.82,1.82c-1.21-1.22-2.15-1.82-3.08-1.82h0Z"/>
  </g>
</svg>